<svg xmlns="http://www.w3.org/2000/svg" viewBox="0 0 32 32" width="32" height="32">
    <g fill="#2775CA">
      <path d="M16 32C7.163 32 0 24.837 0 16S7.163 0 16 0s16 7.163 16 16-7.163 16-16 16zm6.5-12.846c0-2.523-1.576-3.948-4.56-4.405v-3.685h-1.885v3.63c-.495 0-.998.015-1.499.03v-3.66h-1.884v3.685c-.406.015-1.048.015-1.634.015v-.015H8.673l.389 2.09s1.394-.03 1.37 0c.766 0 1.019.435 1.079.813v8.261c-.03.255-.179.644-.75.644.03 0-1.37 0-1.37 0l-.374 2.344h2.599c.484 0 .959.015 1.424.015v3.715h1.884v-3.685c.516.015 1.019.015 1.499.015v3.67h1.885v-3.715c3.259-.18 5.444-1.064 5.714-4.306.224-2.608-.974-3.768-2.928-4.235 1.235-.285 2.139-1.094 2.384-2.783l.002.002zm-2.043 5.853c0 2.523-4.306 2.239-5.684 2.239v-4.477c1.378 0 5.684-.285 5.684 2.238zm-.974-5.084c0 2.298-3.587 2.029-4.71 2.029v-4.072c1.123.001 4.71-.255 4.71 2.043z"/>
    </g>
  </svg>